<svg width="100" height="100" viewBox="0 0 100 100" xmlns="http://www.w3.org/2000/svg" role="img" aria-label="אינסטלציה בקליק">
  <circle cx="50" cy="50" r="50" fill="#1565C0"/>
  <path d="M28 100 L28 78 Q50 68 72 78 L72 100 Z" fill="#0D47A1"/>
  <rect x="34" y="66" width="8" height="18" rx="3" fill="#0D47A1" transform="rotate(-10 38 75)"/>
  <rect x="58" y="66" width="8" height="18" rx="3" fill="#0D47A1" transform="rotate(10 62 75)"/>
  <circle cx="37" cy="83" r="2.6" fill="#FFC107"/>
  <circle cx="63" cy="83" r="2.6" fill="#FFC107"/>
  <ellipse cx="50" cy="58" rx="26" ry="24" fill="#F3B77D"/>
  <path d="M21 45 Q50 10 79 45 Q79 32 50 27 Q21 32 21 45 Z" fill="#E53935"/>
  <rect x="17" y="41" width="66" height="10" rx="5" fill="#E53935"/>
  <circle cx="41" cy="58" r="3.3" fill="#212121"/>
  <circle cx="42.2" cy="56.8" r="1" fill="#ffffff"/>
  <circle cx="59" cy="58" r="3.3" fill="#212121"/>
  <circle cx="60.2" cy="56.8" r="1" fill="#ffffff"/>
  <path d="M31 68 Q50 84 69 68 Q59 76 50 68 Q41 76 31 68 Z" fill="#4E342E"/>
  <g transform="translate(70,64) rotate(30)">
    <rect x="-3" y="0" width="6" height="18" rx="2" fill="#FFB300"/>
    <circle cx="0" cy="-4" r="8" fill="#FFB300"/>
    <circle cx="0" cy="-4" r="4" fill="#1565C0"/>
  </g>
</svg>
